<svg width="93" height="47" viewBox="0 0 93 47" fill="none" xmlns="http://www.w3.org/2000/svg">
<path d="M80.3043 35.0181C85.6124 37.1266 94.2944 41.0094 91.5 42.8723C88.7826 44.6839 69.2457 39.6925 65.5889 38.736C65.197 38.6335 64.7953 38.5768 64.3903 38.5692L38.835 38.087C38.6119 38.0828 38.3912 38.0932 38.1697 38.1197C36.6104 38.3061 29.879 39.1362 25.5 40.0807C20.8557 41.0824 14.0002 43.2605 13.099 43.5489C13.0313 43.5706 12.9667 43.593 12.9 43.6177L6.7733 45.8869C1.77543 47.7379 -1.66005 42.129 2.69079 39.0509C3.98079 38.1382 5.26214 37.2994 6.5 36.5807C14.7514 31.7896 29.4781 27.4478 32.0964 26.6956C32.3669 26.6178 32.6442 26.5656 32.9243 26.537C41.3525 25.6763 47.4429 25.5481 54.8712 26.3742C42.8792 23.8947 35.477 19.4713 27.4437 8.68223C27.1504 8.28825 26.9158 7.84624 26.7798 7.37423C26.3217 5.78387 25.4328 1.93955 27 0.37235C29 -1.62762 41 5.08069 41 5.08069C41 5.08069 37 0.789008 41 0.580692C45 0.372375 66 23.6199 66 23.6199C66.3258 23.9202 66.7342 24.1158 67.1724 24.1816L76.5 25.5807C81.2849 26.3383 82.8645 27.9354 81.2387 31.8328C81.0953 32.1765 80.7923 32.4281 80.4326 32.5247C79.2359 32.846 79.1528 34.5607 80.3043 35.0181Z" fill="url(#paint0_linear_34_89)"/>
<defs>
<linearGradient id="paint0_linear_34_89" x1="-14" y1="-0.12765" x2="93" y2="44.3723" gradientUnits="userSpaceOnUse">
<stop offset="0.0132305" stop-color="#FFEE32"/>
<stop offset="0.505208" stop-color="#FFD100"/>
<stop offset="0.927083" stop-color="#FFB800"/>
</linearGradient>
</defs>
</svg>
