<svg width="107" height="54" viewBox="0 0 107 54" fill="none" xmlns="http://www.w3.org/2000/svg">
<path d="M94.3043 35.0181C99.6124 37.1266 108.294 41.0094 105.5 42.8723C102.783 44.6839 83.2457 39.6925 79.5889 38.736C79.197 38.6335 78.7953 38.5768 78.3903 38.5692L52.835 38.087C52.6119 38.0828 52.3912 38.0932 52.1697 38.1197C50.6104 38.3061 43.879 39.1362 39.5 40.0807C34.8557 41.0824 28.0002 43.2605 27.099 43.5489C27.0313 43.5706 26.9667 43.593 26.9 43.6177L20.7733 45.8869C15.7754 47.7379 12.3399 42.129 16.6908 39.0509C17.9808 38.1382 19.2621 37.2994 20.5 36.5807C28.7514 31.7896 43.4781 27.4478 46.0964 26.6956C46.3669 26.6178 46.6442 26.5656 46.9243 26.537C55.3525 25.6763 61.4429 25.5481 68.8712 26.3742C56.8792 23.8947 49.477 19.4713 41.4437 8.68223C41.1504 8.28825 40.9158 7.84624 40.7798 7.37423C40.3217 5.78387 39.4328 1.93955 41 0.37235C43 -1.62762 55 5.08069 55 5.08069C55 5.08069 51 0.789008 55 0.580692C59 0.372375 80 23.6199 80 23.6199C80.3258 23.9202 80.7342 24.1158 81.1724 24.1816L90.5 25.5807C95.2849 26.3383 96.8645 27.9354 95.2387 31.8328C95.0953 32.1765 94.7923 32.4281 94.4326 32.5247C93.2359 32.846 93.1528 34.5607 94.3043 35.0181Z" fill="black"/>
<circle cx="28" cy="27.0806" r="3.5" fill="black"/>
</svg>
